<svg xmlns="http://www.w3.org/2000/svg" version="1.1" xmlns:xlink="http://www.w3.org/1999/xlink" xmlns:svgjs="http://svgjs.dev/svgjs" width="2000" height="2250" viewBox="0 0 2000 2250"><g transform="matrix(1,0,0,1,0,0)"><svg viewBox="0 0 320 360" data-background-color="#ffffff" preserveAspectRatio="xMidYMid meet" height="2250" width="2000" xmlns="http://www.w3.org/2000/svg" xmlns:xlink="http://www.w3.org/1999/xlink"><g id="tight-bounds" transform="matrix(1,0,0,1,0,0)"><svg viewBox="0 0 320 360" height="360" width="320"><g><svg></svg></g><g><svg viewBox="0 0 320 360" height="360" width="320"><g><path d="M297.491 100.645c-12.426-21.51-112.674-79.355-137.491-79.355-24.817 0-125.028 57.845-137.491 79.355-11.591 20.02-11.591 138.726 0 158.746 12.463 21.474 112.674 79.319 137.491 79.319 24.817 0 125.064-57.845 137.491-79.355 11.591-20.02 11.591-138.69 0-158.71zM309.481 93.705c-14.461-24.998-119.469-86.295-149.481-86.295-30.012 0-135.02 61.297-149.481 86.295-14.025 24.199-14.025 148.391 0 172.59 14.461 24.998 119.469 86.295 149.481 86.295 30.012 0 135.02-61.297 149.481-86.259 14.025-24.235 14.025-148.427 0-172.626zM300.906 261.353c-12.753 22.055-115.472 81.317-140.906 81.318-25.434 0-128.153-59.298-140.906-81.354-11.881-20.529-11.881-142.178 0-162.707 12.753-22.019 115.472-81.281 140.906-81.281 25.434 0 128.153 59.298 140.906 81.318 11.881 20.529 11.881 142.178 0 162.706z" fill="#ffffff" fill-rule="nonzero" stroke="none" stroke-width="1" stroke-linecap="butt" stroke-linejoin="miter" stroke-miterlimit="10" stroke-dasharray="" stroke-dashoffset="0" font-family="none" font-weight="none" font-size="none" text-anchor="none" style="mix-blend-mode: normal" data-fill-palette-color="tertiary"></path></g><g transform="matrix(1,0,0,1,68.60169491525423,90.00000000000001)"><svg viewBox="0 0 182.79661016949154 179.99999999999997" height="179.99999999999997" width="182.79661016949154"><g><svg viewBox="0 0 182.79661016949154 179.99999999999997" height="179.99999999999997" width="182.79661016949154"><g><svg viewBox="0 0 182.79661016949154 179.99999999999997" height="179.99999999999997" width="182.79661016949154"><g id="textblocktransform"><svg viewBox="0 0 182.79661016949154 179.99999999999997" height="179.99999999999997" width="182.79661016949154" id="textblock"><g><svg viewBox="0 0 182.79661016949154 179.99999999999997" height="179.99999999999997" width="182.79661016949154"><g transform="matrix(1,0,0,1,0,0)"><svg width="182.79661016949154" viewBox="3 -35.4 35.95 35.4" height="179.99999999999997" data-palette-color="#111827"><path d="M26 0L4 0 4-27.4 3-32.4 4-35.4 23-35.4Q28.65-35.4 32.05-33.2 35.45-31 35.45-26.5L35.45-26.5Q35.45-24.05 34.58-22.48 33.7-20.9 32.35-19.8L32.35-19.8Q34.05-19.4 35.55-18.32 37.05-17.25 38-15.48 38.95-13.7 38.95-11.1L38.95-11.1Q38.95-5.85 35.88-2.93 32.8 0 26 0L26 0ZM15-25.9L15-21.65 20.9-21.65Q22.6-21.65 23.35-22.18 24.1-22.7 24.1-23.8L24.1-23.8Q24.1-24.95 23-25.43 21.9-25.9 20.4-25.9L20.4-25.9 15-25.9ZM15-14.2L15-9.5 23.5-9.5Q25.5-9.5 26.3-10.13 27.1-10.75 27.1-11.8L27.1-11.8Q27.1-14.2 24-14.2L24-14.2 15-14.2Z" opacity="1" transform="matrix(1,0,0,1,0,0)" fill="#111827" class="wordmark-text-0" data-fill-palette-color="quaternary" id="text-0"></path></svg></g></svg></g></svg></g></svg></g><g></g></svg></g></svg></g></svg></g><defs></defs></svg><rect width="320" height="360" fill="none" stroke="none" visibility="hidden"></rect></g></svg></g></svg>